<svg width="57" height="57" viewBox="0 0 57 57" fill="none" xmlns="http://www.w3.org/2000/svg">
<g clip-path="url(#clip0_115_170)">
<path d="M0.0530044 26.6785C0.100119 25.62 0.241464 24.5614 0.429924 23.5029C1.67847 16.5635 5.02364 10.8238 10.489 6.40146C17.2029 1.01463 24.9062 -0.984849 33.4104 0.450071C40.407 1.62623 46.1786 5.06063 50.631 10.5651C56.0256 17.2692 57.9809 24.9378 56.5439 33.4297C55.3425 40.3926 51.9031 46.1087 46.4377 50.5782C42.056 54.1537 37.0147 56.2002 31.3845 56.7883C30.7249 56.8589 30.0653 57 29.4057 57H27.3561C27.1441 57 27.0499 57 26.8379 56.953C24.9768 56.8353 23.1629 56.4825 21.3725 56.012C15.4832 54.4595 10.5597 51.3779 6.67266 46.7203C2.95058 42.345 0.806844 37.2875 0.147234 31.5949C-0.0883406 29.8306 0.0294469 26.7961 0.0294469 26.6785H0.0530044ZM31.0782 37.1228C31.0782 34.3941 31.0782 31.6654 31.0782 28.9367C31.0782 28.4192 31.2196 28.3016 31.7143 28.3251C33.0099 28.3487 34.3292 28.3251 35.6248 28.3251C35.8604 28.3251 36.0489 28.3722 36.096 27.9958C36.2609 26.1845 36.4258 24.3968 36.6378 22.5855C36.6849 22.162 36.5436 22.1385 36.2138 22.1385C34.6825 22.1385 33.1277 22.1385 31.5965 22.1385C31.196 22.1385 31.0782 22.0444 31.0782 21.6445C31.1018 20.586 31.0782 19.5039 31.0782 18.4454C31.0782 17.3163 31.6436 16.7752 32.7979 16.7752C33.8816 16.7752 34.9652 16.7752 36.0724 16.7752C36.4258 16.7752 36.5907 16.7282 36.5907 16.3048C36.5671 14.6111 36.5907 12.8939 36.5907 11.1767C36.5907 10.8474 36.4965 10.7533 36.1667 10.7533C34.2821 10.7533 32.3975 10.7297 30.5364 10.7533C26.7908 10.8474 24.1523 13.4114 23.8932 17.1516C23.799 18.61 23.8225 20.045 23.8461 21.5034C23.8461 22.0209 23.6812 22.162 23.1865 22.1385C22.4091 22.0915 21.6081 22.1385 20.8072 22.1385C20.4774 22.1385 20.3125 22.1856 20.3125 22.5855C20.3125 24.3497 20.3125 26.114 20.3125 27.9017C20.3125 28.231 20.3831 28.3487 20.7365 28.3487C21.5374 28.3251 22.362 28.3722 23.1629 28.3487C23.7283 28.3016 23.8225 28.5133 23.8225 29.0073C23.8225 34.4177 23.8225 39.828 23.799 45.2619C23.799 45.8029 23.9403 45.9205 24.4821 45.9205C26.461 45.897 28.4634 45.8735 30.4422 45.9205C31.0547 45.9205 31.1254 45.7324 31.1254 45.2148C31.1018 42.5332 31.1254 39.8515 31.1254 37.1464L31.0782 37.1228Z" fill="#414764"/>
</g>
<defs>
<clipPath id="clip0_115_170">
<rect width="57" height="57" fill="white"/>
</clipPath>
</defs>
</svg>
