<svg viewBox="0 0 224 182" fill="none" xmlns="http://www.w3.org/2000/svg">
<path d="M132.732 94.2697C126.561 94.2697 125.38 87.8269 125.38 81.6472C125.38 72.5743 129.975 61.924 136.409 61.924C142.578 61.924 143.629 68.3668 143.629 74.5465C143.629 83.6193 139.164 94.2697 132.732 94.2697ZM131.944 122.539C138.377 123.987 139.428 127.143 139.428 130.561C139.428 135.425 134.57 142.394 123.805 142.394C114.352 142.394 111.858 135.69 111.858 132.27C111.858 127.536 115.14 122.409 122.097 120.436L131.944 122.539ZM217.89 54.8232C209.357 55.7428 203.843 59.1623 203.843 64.5526C203.843 68.8931 206.731 72.7059 211.852 76.7818L210.144 81.2524C206.994 89.4043 198.459 98.3471 192.16 103.737L187.17 55.8744L149.01 58.2413C144.284 56.4007 140.871 55.8744 137.721 55.8744C115.533 55.8744 106.213 68.8931 106.213 80.9893C106.213 87.3005 108.969 93.3501 115.14 97.426C108.838 99.3982 104.243 103.869 104.243 109.129C104.243 109.955 104.339 110.771 104.542 111.565C102.933 112.107 101.195 112.547 99.6534 112.547C97.6843 112.547 97.0289 111.363 97.0289 109.129C97.0289 107.42 97.5529 104.264 97.947 102.028L102.936 73.2322C105.037 61.1345 97.6843 55.7428 88.4942 55.7428C81.9301 55.7428 77.7292 57.0586 70.771 64.2909L66.8328 68.3668C66.5701 59.9503 60.4001 55.7428 51.9983 55.7428C45.4327 55.7428 41.3632 57.4533 34.2736 64.2909L30.0727 68.3668V55.8744L3.15944 56.927L1.8472 63.633H6.17948C8.4113 63.633 9.72499 63.633 7.75445 75.2043L0.272217 118.595H21.8022L29.0232 78.754L37.8191 69.9442C41.1019 66.6563 43.3323 64.2909 44.5146 64.2909C47.0092 64.2909 45.9582 67.5773 44.5146 75.4675L36.7682 118.595H58.2997L65.5206 78.754L74.3151 69.9442C77.4665 66.6563 79.8297 64.2909 81.012 64.2909C83.5051 64.2909 82.4556 67.5773 81.012 75.4675L75.4974 106.236C75.2347 107.42 74.8406 109.391 74.8406 111.627C74.8406 116.624 80.4865 120.174 87.7075 120.174C95.8524 120.174 104.405 117.838 107.959 116.506C108.385 116.823 108.848 117.127 109.363 117.412C100.042 120.83 93.8716 126.485 93.8716 133.06C93.8716 144.236 107.131 149.232 121.836 149.232C140.347 149.232 161.089 141.343 161.089 127.405C161.089 121.488 156.888 116.098 145.596 113.73L127.088 109.785C124.198 109.129 122.885 107.025 122.885 104.921C122.885 102.949 124.066 100.846 126.3 100.318C127.088 100.451 128.663 100.846 129.844 100.846C148.222 100.846 162.009 90.0622 162.009 74.4149C162.009 71.3916 161.352 67.8405 160.04 65.6052L166.729 64.035L172.203 118.595H188.483C202.793 108.471 223.272 86.6441 223.272 66.9195C223.272 61.3977 219.598 56.4007 217.89 54.8232Z" fill="#231F20"/>
<path d="M93.8575 31.7361L93.5408 31.5563L111.5 0L129.46 31.4773L129.143 31.6601L111.5 0.736824L93.8575 31.7361Z" fill="#231F20"/>
<path d="M6.77661 181.079L25.3946 149.242L26.339 149.796L8.69169 179.974L43.6769 179.844L43.6813 180.94L6.77661 181.079Z" fill="#231F20"/>
<path d="M217.818 182L179.382 181.827L179.395 178.904L212.716 179.053L195.863 150.185L198.384 148.71L217.818 182Z" fill="#231F20"/>
</svg>
