<svg viewBox="0 0 57 57" fill="none" xmlns="http://www.w3.org/2000/svg">
<g clip-path="url(#clip0_115_172)">
<path d="M57 29.1196C56.6219 44.4338 44.3347 56.7545 29.0019 56.9961C12.7555 57.2587 -0.324671 44.1712 0.00613947 27.8696C0.315946 12.5554 12.6924 0.245168 28.0042 0.00358572C44.2192 -0.248501 57.2468 12.8232 56.9947 29.1143L57 29.1196ZM42.4864 34.3293C42.4864 32.5542 42.5179 30.7739 42.4759 28.9988C42.4444 27.5965 42.2553 26.2153 41.641 24.9234C40.9846 23.5422 40.0132 22.4865 38.5744 21.9088C36.7996 21.1946 35.0143 21.2261 33.2447 21.9193C32.079 22.3763 31.1338 23.1273 30.3987 24.1356C30.3304 24.2301 30.2936 24.3772 30.1466 24.3457C29.9943 24.3089 30.0311 24.1566 30.0153 24.0463C29.9418 23.4371 29.8788 22.8227 29.8053 22.2134C29.7843 22.0244 29.7633 21.8301 29.4902 21.8301C28.0462 21.8353 26.6022 21.8353 25.153 21.8353C24.9587 21.8353 24.8694 21.9193 24.8957 22.1189C24.9954 22.8857 24.9692 23.6577 24.9902 24.4245C25.0532 26.6145 25.0584 28.8045 25.0637 30.9892C25.0637 31.5091 24.9902 32.0291 25.0269 32.549C25.1215 33.9197 25.0007 35.2904 25.0532 36.6664C25.0847 37.3806 25.0112 38.1054 25.0637 38.8301C25.0899 39.1453 25.0742 39.4709 25.0479 39.786C25.0164 40.2166 25.0164 40.2271 25.447 40.2271C27.0223 40.2271 28.5976 40.2271 30.1729 40.2271C30.5054 40.2271 30.6717 40.0661 30.6717 39.744C30.6717 36.3303 30.6717 32.9166 30.6717 29.5082C30.6717 28.9358 30.7295 28.3843 30.9763 27.8486C31.5801 26.5304 32.9401 25.7689 34.3631 25.9632C35.7231 26.147 36.5423 27.3024 36.7261 28.5891C36.8521 29.4714 36.8731 30.359 36.8731 31.2465C36.8678 34.114 36.8731 36.9815 36.8678 39.849C36.8678 40.1168 36.9414 40.2324 37.2302 40.2324C38.8527 40.2271 40.4752 40.2324 42.0978 40.2376C42.3971 40.2376 42.4811 40.1273 42.4811 39.8385C42.4706 38.0004 42.4759 36.1675 42.4759 34.3293H42.4864ZM15.8483 31.047C15.8483 31.047 15.8483 31.047 15.843 31.047C15.843 32.1394 15.843 33.2265 15.843 34.3188C15.843 36.1675 15.843 38.0161 15.843 39.8647C15.843 40.0801 15.8745 40.2376 16.1423 40.2324C17.8384 40.2271 19.5292 40.2271 21.2252 40.2271C21.451 40.2271 21.5088 40.1273 21.493 39.9173C21.472 39.6337 21.4405 39.3501 21.4615 39.0665C21.5561 37.5645 21.4825 36.0624 21.4825 34.5604C21.4825 33.1635 21.4825 31.7665 21.4825 30.3747C21.4878 29.0723 21.4773 27.7699 21.4773 26.4727C21.4773 25.0757 21.5613 23.6787 21.4668 22.287C21.4405 21.9246 21.3355 21.8248 20.9837 21.8248C19.4452 21.8406 17.9066 21.8353 16.3629 21.8353C15.8483 21.8353 15.843 21.8353 15.843 22.3447C15.843 25.249 15.843 28.148 15.843 31.0522L15.8483 31.047ZM18.6628 19.3985C18.8833 19.4195 19.1774 19.3722 19.4662 19.3145C21.1937 18.9678 22.1652 17.1665 21.3985 15.4229C20.5059 13.3904 17.8174 13.4272 16.5781 14.5196C15.7432 15.2601 15.4544 16.6098 15.8798 17.6916C16.2946 18.742 17.3605 19.4142 18.6628 19.3985Z" fill="#414764"/>
</g>
<defs>
<clipPath id="clip0_115_172">
<rect width="57" height="57" fill="white"/>
</clipPath>
</defs>
</svg>
