<svg width="79" height="58" viewBox="0 0 79 58" fill="none" xmlns="http://www.w3.org/2000/svg">
<path d="M43.6695 30.61C42.1475 30.61 41.8562 29.0404 41.8562 27.5349C41.8562 25.3245 42.9894 22.7299 44.5765 22.7299C46.0977 22.7299 46.3569 24.2995 46.3569 25.805C46.3569 28.0154 45.2558 30.61 43.6695 30.61ZM43.4751 37.4972C45.0617 37.8498 45.3209 38.6188 45.3209 39.4514C45.3209 40.6364 44.1229 42.3342 41.4676 42.3342C39.1364 42.3342 38.5211 40.7008 38.5211 39.8679C38.5211 38.7144 39.3308 37.4654 41.0464 36.9846L43.4751 37.4972ZM64.6727 21C62.568 21.224 61.208 22.0571 61.208 23.3703C61.208 24.4277 61.9205 25.3566 63.1833 26.3496L62.7621 27.4387C61.9853 29.4247 59.8803 31.6034 58.3265 32.9165L57.096 21.2561L47.6842 21.8327C46.5186 21.3843 45.677 21.2561 44.8999 21.2561C39.4275 21.2561 37.1289 24.4277 37.1289 27.3746C37.1289 28.9122 37.8086 30.386 39.3308 31.379C37.7762 31.8594 36.6429 32.9486 36.6429 34.2301C36.6429 34.4313 36.6667 34.63 36.7167 34.8234C36.32 34.9556 35.8912 35.0628 35.511 35.0628C35.0254 35.0628 34.8638 34.7743 34.8638 34.2301C34.8638 33.8137 34.993 33.0448 35.0902 32.5002L36.3207 25.4848C36.8387 22.5376 35.0254 21.224 32.7588 21.224C31.1399 21.224 30.1037 21.5446 28.3876 23.3065L27.4163 24.2995C27.3515 22.2491 25.8297 21.224 23.7575 21.224C22.1382 21.224 21.1346 21.6407 19.386 23.3065L18.3499 24.2995V21.2561L11.7121 21.5125L11.3884 23.1463H12.4569C13.0074 23.1463 13.3314 23.1463 12.8454 25.9653L11 36.5363H16.3101L18.0911 26.83L20.2604 24.6838C21.0701 23.8828 21.6202 23.3065 21.9118 23.3065C22.527 23.3065 22.2678 24.1072 21.9118 26.0294L20.0012 36.5363H25.3117L27.0926 26.83L29.2617 24.6838C30.0389 23.8828 30.6218 23.3065 30.9134 23.3065C31.5283 23.3065 31.2695 24.1072 30.9134 26.0294L29.5533 33.5252C29.4885 33.8137 29.3913 34.2938 29.3913 34.8388C29.3913 36.0561 30.7838 36.921 32.5648 36.921C34.5736 36.921 36.6829 36.3517 37.5595 36.0273C37.6646 36.1045 37.7787 36.1786 37.9058 36.2481C35.6068 37.0807 34.0851 38.4585 34.0851 40.0602C34.0851 42.783 37.3554 44 40.9822 44C45.5477 44 50.6635 42.0781 50.6635 38.6824C50.6635 37.241 49.6272 35.9279 46.8423 35.3509L42.2774 34.39C41.5646 34.2301 41.2408 33.7175 41.2408 33.205C41.2408 32.7246 41.5322 32.212 42.083 32.0835C42.2774 32.1159 42.6659 32.212 42.957 32.212C47.4898 32.212 50.8903 29.585 50.8903 25.773C50.8903 25.0364 50.7283 24.1713 50.4045 23.6267L52.0545 23.2442L53.4045 36.5363H57.4195C60.949 34.0698 66 28.7523 66 23.9469C66 22.6017 65.0939 21.3843 64.6727 21Z" fill="#231F20"/>
<path d="M70.8712 51.9828L57.275 51.9218L57.2797 50.894L69.0666 50.9464L63.1048 40.7959L63.9966 40.2769L70.8712 51.9828Z" fill="#231F20"/>
<path d="M12 52.2443L18.5859 41L18.92 41.1956L12.6774 51.854L25.0531 51.8079L25.0546 52.1952L12 52.2443Z" fill="#231F20"/>
<path d="M33.112 14.2087L33 14.1452L39.3529 3L45.7062 14.1173L45.5939 14.1818L39.3529 3.26024L33.112 14.2087Z" fill="#231F20"/>
</svg>
